<?xml version="1.0" encoding="UTF-8" standalone="no"?>
<!-- Generator: Adobe Illustrator 18.1.0, SVG Export Plug-In . SVG Version: 6.00 Build 0)  -->

<svg
   version="1.1"
   id="Gopher"
   x="0px"
   y="0px"
   viewBox="0 0 330 281.6"
   enable-background="new 0 0 215.6 281.6"
   xml:space="preserve"
   sodipodi:docname="gopher-front.svg"
   width="330"
   height="281.60001"
   inkscape:version="1.4 (e7c3feb1, 2024-10-09)"
   xmlns:inkscape="http://www.inkscape.org/namespaces/inkscape"
   xmlns:sodipodi="http://sodipodi.sourceforge.net/DTD/sodipodi-0.dtd"
   xmlns="http://www.w3.org/2000/svg"
   xmlns:svg="http://www.w3.org/2000/svg"><defs
   id="defs12" /><sodipodi:namedview
   id="namedview12"
   pagecolor="#ffffff"
   bordercolor="#000000"
   borderopacity="0.25"
   inkscape:showpageshadow="2"
   inkscape:pageopacity="0.0"
   inkscape:pagecheckerboard="0"
   inkscape:deskcolor="#d1d1d1"
   inkscape:zoom="1.5535187"
   inkscape:cx="168.0057"
   inkscape:cy="187.9604"
   inkscape:window-width="1200"
   inkscape:window-height="1027"
   inkscape:window-x="523"
   inkscape:window-y="25"
   inkscape:window-maximized="0"
   inkscape:current-layer="Gopher" />
<g
   id="g12"
   transform="translate(56.576699)">
	<path
   fill="#8cc5e7"
   d="m 207.3,44.6 c -6.7,-13.7 -22.9,-1.6 -27,-5.9 -21,-21.6 -46.4,-27 -66.3,-28 0,0 -9,0 -11,0 -20,0.5 -45.4,6.3 -66.3,28 -4.1,4.3 -20.4,-7.8 -27,5.9 -7.7,16 15.7,17.6 14.5,24.7 -2.3,12.8 -0.8,31.8 1,50.5 2.8,31.7 -20.9,107.6 28.4,138.1 9.3,5.8 34.4,9 56.2,9.5 v 0 c 0,0 0.1,0 0.1,0 0,0 0.1,0 0.1,0 v 0 c 21.8,-0.5 43.9,-3.7 53.2,-9.5 49.4,-30.5 25.7,-106.4 28.6,-138.1 1.7,-18.7 3.2,-37.7 1,-50.5 -1.2,-7.1 22.2,-8.8 14.5,-24.7 z"
   id="path1" />
	<g
   id="g3">
		<path
   fill="#e0dedc"
   d="m 143.2,54.3 c -33.4,3.9 -28.9,38.7 -16,50 24,21 49,0 46.2,-21.2 -2.5,-20.4 -19.8,-30 -30.2,-28.8 z"
   id="path2" />
		<circle
   fill="#111212"
   cx="145.5"
   cy="84.300003"
   r="11.4"
   id="circle2" />
		<circle
   fill="#ffffff"
   cx="142.5"
   cy="79.400002"
   r="3.5999999"
   id="circle3" />
	</g>
	<g
   id="g5">
		<path
   fill="#b8937f"
   d="m 108.5,107 c -16,2.4 -21.7,7 -20.5,14.2 2,11.8 39.7,10.5 40.9,0.6 1,-8.5 -14.1,-15.7 -20.4,-14.8 z"
   id="path3" />
		<path
   d="m 98.2,111.8 c -2.7,9.8 21.7,8.3 21.1,2 -0.3,-3.7 -3.6,-8.4 -12.3,-8.2 -3.4,0.1 -7.6,1.6 -8.8,6.2 z"
   id="path4" />
		<path
   fill="#e0dedc"
   d="m 99,127.7 c -0.9,0.4 -2.4,10.2 2.2,10.7 3.1,0.3 11.6,1.3 13.6,0 3.9,-2.5 3.5,-8.5 1.3,-10 C 112.4,126 100,127.2 99,127.7 Z"
   id="path5" />
	</g>
	<g
   id="g7">
		<path
   fill="#e0dedc"
   d="m 73.6,54.3 c 33.4,3.9 28.9,38.7 16,50 -24,21 -49,0 -46.2,-21.2 2.6,-20.4 19.9,-30 30.2,-28.8 z"
   id="path6" />
		<circle
   fill="#111212"
   cx="71.400002"
   cy="84.300003"
   r="11.4"
   id="circle6" />
		<circle
   fill="#ffffff"
   cx="74.400002"
   cy="79.400002"
   r="3.5999999"
   id="circle7" />
	</g>
	<path
   fill="#b8937f"
   d="m 193.6,186.7 c 11,0.1 5.6,-23.5 -1.2,-18.8 -3.3,2.3 -3.9,7.6 -3.9,12.1 0,2.5 2,6.6 5.1,6.7 z"
   id="path7" />
	<path
   fill="#b8937f"
   d="m 23.3,186.7 c -11,0.1 -5.6,-23.5 1.2,-18.8 3.3,2.3 3.9,7.6 3.9,12.1 0,2.5 -2,6.6 -5.1,6.7 z"
   id="path8" />
	<path
   fill="#b8937f"
   d="m 172.7,259.2 c -6,-8.9 -11.4,-2 -20.1,2.4 -4.1,2.1 6.8,9.6 19,4 3.2,-1.5 3.1,-3.5 1.1,-6.4 z"
   id="path9" />
	<path
   fill="#b8937f"
   d="m 44.2,260.2 c 6,-8.9 11.4,-2 20.1,2.4 4.1,2.1 -6.8,9.6 -19,4 -3.2,-1.5 -3.1,-3.5 -1.1,-6.4 z"
   id="path10" />
	<path
   fill="#3c89bf"
   d="m 188.6,47 c -0.6,2.1 2.1,1.8 3.1,8.3 0.4,2.4 9,-3.5 5.5,-7.8 -2.9,-3.6 -8.1,-2.6 -8.6,-0.5 z"
   id="path11" />
	<path
   fill="#3c89bf"
   d="m 28.3,47 c 0.6,2.1 -2.1,1.8 -3.1,8.3 -0.4,2.4 -9,-3.5 -5.5,-7.8 2.8,-3.6 8,-2.6 8.6,-0.5 z"
   id="path12" />
</g>
<path
   style="font-size:237.962px;font-family:Georgia;-inkscape-font-specification:Georgia;stroke-width:1.23938"
   d="m 95.207606,222.54993 q -12.2002,0 -21.960361,-1.74289 -9.76016,-1.62669 -16.383126,-6.27439 -6.739159,-4.76388 -10.22493,-12.78116 -3.369579,-7.90108 -3.369579,-21.03082 0,-6.97154 0.813346,-14.98882 0.929539,-8.13346 0.929539,-14.52405 0,-8.36585 -2.44004,-13.82689 -2.44004,-5.57723 -7.203928,-8.94681 -4.647695,-3.36958 -11.503046,-4.88008 -6.85535,-1.5105 -14.8726251,-2.09147 v -14.98881 q 8.1334671,-0.69716 15.1050101,-2.32385 7.087736,-1.74289 11.386854,-4.880082 4.996272,-3.601964 7.203928,-9.063006 2.323847,-5.577235 2.323847,-13.478317 0,-6.622966 -0.929539,-14.640241 -0.813346,-8.017274 -0.813346,-14.988817 0,-12.084009 3.369579,-20.333668 Q 50.12496,18.5161 56.864119,13.63602 63.487085,8.8721317 73.363438,7.129246 83.23979,5.2701678 95.207606,5.2701678 v 9.5277752 q -4.647695,0.232385 -10.805892,1.278117 -6.158196,0.929539 -9.76016,2.904809 -4.182926,2.323848 -6.855351,7.436313 -2.556232,4.996273 -2.556232,13.594509 v 27.189018 q 0,12.200201 -2.90481,20.217475 -2.90481,8.017275 -8.598237,13.013546 -5.228657,4.6477 -12.432585,7.43631 -7.203928,2.67243 -16.034549,4.29912 v 3.60197 q 8.365852,1.62669 15.685972,4.29911 7.436313,2.67243 12.781162,7.43632 5.461042,4.88008 8.482044,12.89735 3.021003,8.01728 3.021003,20.33367 v 27.07283 q 0,8.24965 2.44004,13.36212 2.44004,5.11246 6.971543,7.78489 4.299118,2.44004 9.992545,3.25339 5.809619,0.81334 10.573507,1.04573 z"
   id="text12"
   transform="scale(0.80685251,1.2393839)"
   aria-label="{" /><path
   style="font-size:237.962px;font-family:Georgia;-inkscape-font-specification:Georgia;stroke-width:1.23938"
   d="m 398.75345,121.25587 q -8.01727,0.58096 -14.98881,2.20766 -6.85535,1.5105 -11.38686,4.76389 -4.76388,3.36958 -7.20392,8.94681 -2.44004,5.46104 -2.44004,13.82689 0,6.39058 0.81334,14.52405 0.92954,8.01728 0.92954,14.98882 0,13.12974 -3.48577,21.03082 -3.36958,8.01728 -10.10874,12.78116 -6.50677,4.53151 -16.38312,6.27439 -9.76016,1.74289 -21.96037,1.74289 v -9.29539 q 4.76389,-0.23239 10.57351,-1.04573 5.80962,-0.81335 9.99255,-3.25339 4.5315,-2.67243 6.97154,-7.78489 2.44004,-5.11247 2.44004,-13.36212 V 160.5289 q 0,-12.31639 3.021,-20.33367 3.021,-8.01727 8.48205,-12.89735 5.34485,-4.76389 12.66497,-7.43632 7.43631,-2.67242 15.80216,-4.29911 v -3.60197 q -8.83062,-1.62669 -16.03455,-4.29912 -7.20393,-2.78861 -12.43258,-7.43631 -5.69343,-4.996271 -8.59824,-13.013546 -2.90481,-8.017275 -2.90481,-20.217475 V 39.805011 q 0,-8.598237 -2.67242,-13.594509 -2.55624,-5.112465 -6.73916,-7.436313 -3.60197,-1.975271 -9.76016,-2.90481 -6.1582,-1.045731 -10.8059,-1.278116 V 5.0634875 q 11.96782,0 21.84417,1.8590782 9.87636,1.7428857 16.49932,6.5067733 6.73916,4.88008 10.10874,13.12974 3.48577,8.249659 3.48577,20.333667 0,6.971543 -0.92954,14.988818 -0.81334,8.017275 -0.81334,14.640241 0,7.901082 2.20765,13.478316 2.32385,5.461042 7.32012,9.063006 4.29912,3.021003 11.27066,4.763893 7.08774,1.74288 15.2212,2.44004 z"
   id="text12-3"
   transform="scale(0.80685251,1.2393839)"
   aria-label="}" /></svg>
