<svg xmlns="http://www.w3.org/2000/svg" width="760" height="240" viewBox="0 0 760 240">
  <rect width="100%" height="100%" fill="#ffffff"/>
  <g font-family="Segoe UI, Roboto, Helvetica, Arial, sans-serif" fill="#222" font-size="14">
    <rect x="30" y="24" width="180" height="60" rx="8" fill="#e8f0fe" stroke="#4285f4"/>
    <text x="40" y="50">Method receiver</text>
    <text x="40" y="70">NewJSONSchemaMethod</text>

    <rect x="30" y="100" width="180" height="60" rx="8" fill="#e8f0fe" stroke="#4285f4"/>
    <text x="40" y="126">Func(T)</text>
    <text x="40" y="146">NewJSONSchemaFunc</text>

    <rect x="30" y="176" width="180" height="60" rx="8" fill="#e8f0fe" stroke="#4285f4"/>
    <text x="40" y="202">Builder()</text>
    <text x="40" y="222">Builder[T] or BuilderFor</text>

    <polygon points="260,50 330,50 330,40 360,60 330,80 330,70 260,70" fill="#34a853"/>
    <polygon points="260,126 330,126 330,116 360,136 330,156 330,146 260,146" fill="#34a853"/>
    <polygon points="260,202 330,202 330,192 360,212 330,232 330,222 260,222" fill="#34a853"/>

    <rect x="380" y="24" width="340" height="80" rx="8" fill="#fef7e0" stroke="#f9ab00"/>
    <text x="392" y="50">Generated files</text>
    <text x="392" y="70">jsonschema/&lt;Type&gt;.json or .json.tmpl</text>
    <text x="392" y="90">jsonschema_gen.go (Schema, RenderedSchema?)</text>
  </g>
</svg>
