<svg xmlns="http://www.w3.org/2000/svg" width="720" height="220" viewBox="0 0 720 220">
  <rect width="100%" height="100%" fill="#ffffff"/>
  <g font-family="Segoe UI, Roboto, Helvetica, Arial, sans-serif" fill="#222" font-size="14">
    <rect x="20" y="20" width="240" height="70" rx="8" fill="#e8f0fe" stroke="#4285f4"/>
    <text x="30" y="46">const ( ColorRed = iota ... )</text>
    <text x="30" y="66">type Color int</text>

    <polygon points="280,55 320,55 320,45 350,65 320,85 320,75 280,75" fill="#34a853"/>

    <rect x="360" y="20" width="320" height="70" rx="8" fill="#fef7e0" stroke="#f9ab00"/>
    <text x="370" y="46">Default (numeric) enum in schema</text>
    <text x="370" y="66">enum: [0,1,2]</text>

    <rect x="20" y="120" width="240" height="70" rx="8" fill="#e6f4ea" stroke="#34a853"/>
    <text x="30" y="146">WithEnumMode(EnumStrings)</text>
    <text x="30" y="166">WithEnumName optional overrides</text>

    <polygon points="280,155 320,155 320,145 350,165 320,185 320,175 280,175" fill="#34a853"/>

    <rect x="360" y="120" width="320" height="70" rx="8" fill="#fef7e0" stroke="#f9ab00"/>
    <text x="370" y="146">String enum in schema</text>
    <text x="370" y="166">enum: ["red","green","blue"]</text>
  </g>
</svg>
