<svg xmlns="http://www.w3.org/2000/svg" width="820" height="260" viewBox="0 0 820 260">
  <rect width="100%" height="100%" fill="#ffffff"/>
  <g font-family="Segoe UI, Roboto, Helvetica, Arial, sans-serif" fill="#222" font-size="14">
    <rect x="20" y="20" width="180" height="60" rx="8" fill="#e8f0fe" stroke="#4285f4"/>
    <text x="30" y="46">Type T</text>
    <text x="30" y="66">fields: a, b, c</text>

    <rect x="220" y="20" width="210" height="80" rx="8" fill="#e6f4ea" stroke="#34a853"/>
    <text x="230" y="46">Options</text>
    <text x="230" y="66">WithStructAccessorMethod</text>
    <text x="230" y="86">WithStructFunctionMethod</text>
    <text x="230" y="106">WithFunction</text>

    <polygon points="160,80 200,80 200,70 230,90 200,110 200,100 160,100" fill="#34a853"/>
    <polygon points="430,60 470,60 470,50 500,70 470,90 470,80 430,80" fill="#34a853"/>

    <rect x="520" y="20" width="280" height="90" rx="8" fill="#fef7e0" stroke="#f9ab00"/>
    <text x="530" y="46">jsonschema/T.json.tmpl</text>
    <text x="530" y="66">holes: {{.a}}, {{.b}}, {{.c}}</text>

    <rect x="220" y="140" width="210" height="60" rx="8" fill="#e6f4ea" stroke="#34a853"/>
    <text x="230" y="172">WithRenderProviders()</text>

    <polygon points="430,170 470,170 470,160 500,180 470,200 470,190 430,190" fill="#34a853"/>

    <rect x="520" y="130" width="280" height="100" rx="8" fill="#f1f3f4" stroke="#5f6368"/>
    <text x="530" y="156">RenderedSchema()</text>
    <text x="530" y="176">calls providers → map[string]json.RawMessage</text>
    <text x="530" y="196">executes template → concrete JSON</text>
  </g>
</svg>
